<?xml version="1.0" encoding="UTF-8" standalone="no"?><!DOCTYPE svg PUBLIC "-//W3C//DTD SVG 1.1//EN" "http://www.w3.org/Graphics/SVG/1.1/DTD/svg11.dtd"><svg width="100%" height="100%" viewBox="0 0 2424 2623" version="1.1" xmlns="http://www.w3.org/2000/svg" xmlns:xlink="http://www.w3.org/1999/xlink" xml:space="preserve" xmlns:serif="http://www.serif.com/" style="fill-rule:evenodd;clip-rule:evenodd;stroke-linecap:round;stroke-linejoin:round;stroke-miterlimit:1.5;"><g><rect x="0" y="0" width="2423.17" height="1410.54" style="fill:#fff;"/><clipPath id="_clip1"><rect x="0" y="0" width="2423.17" height="1410.54"/></clipPath><g clip-path="url(#_clip1)"><g><circle cx="1985.04" cy="1091" r="1043.5" style="fill:#bde0f5;"/><g><rect x="2045.68" y="260.313" width="385.225" height="687.658" style="fill:#66b7e7;"/><rect x="2045.68" y="273.448" width="385.225" height="13.135" style="fill:#0d273c;"/><rect x="2256.11" y="131.187" width="64.791" height="74.652" style="fill:#66b7e7;"/><rect x="1980.89" y="131.187" width="64.791" height="74.652" style="fill:#66b7e7;"/><rect x="2191.32" y="131.187" width="64.791" height="74.652" style="fill:#fff;"/><rect x="1916.1" y="131.187" width="64.791" height="74.652" style="fill:#fff;"/><rect x="2045.68" y="205.839" width="414.909" height="54.474" style="fill:#0d273c;"/><rect x="1630.77" y="205.839" width="414.909" height="54.474" style="fill:#66b7e7;"/><rect x="1660.45" y="260.313" width="385.225" height="687.658" style="fill:#fff;"/><rect x="1660.45" y="273.448" width="385.225" height="13.135" style="fill:#66b7e7;"/><rect x="2045.68" y="293.151" width="385.225" height="6.568" style="fill:#0d273c;"/><rect x="1660.45" y="293.151" width="385.225" height="6.568" style="fill:#66b7e7;"/><rect x="1853.07" y="909.686" width="125.643" height="31.323" style="fill:#0d273c;"/><rect x="2090.89" y="561.935" width="129.582" height="94.769" style="fill:#0d273c;"/><rect x="2090.89" y="372.398" width="129.582" height="94.769" style="fill:#0d273c;"/><rect x="2090.89" y="751.472" width="129.582" height="94.769" style="fill:#0d273c;"/><rect x="2256.11" y="561.935" width="129.582" height="94.769" style="fill:#0d273c;"/><rect x="2256.11" y="372.398" width="129.582" height="94.769" style="fill:#0d273c;"/><rect x="2256.11" y="751.472" width="129.582" height="94.769" style="fill:#0d273c;"/><rect x="2090.89" y="656.703" width="141.376" height="14.019" style="fill:#0d273c;"/><rect x="2090.89" y="467.166" width="141.376" height="14.019" style="fill:#0d273c;"/><rect x="2090.89" y="846.24" width="141.376" height="14.019" style="fill:#0d273c;"/><rect x="2256.11" y="656.703" width="141.376" height="14.019" style="fill:#0d273c;"/><rect x="2256.11" y="467.166" width="141.376" height="14.019" style="fill:#0d273c;"/><rect x="2256.11" y="846.24" width="141.376" height="14.019" style="fill:#0d273c;"/><g><rect x="1697.67" y="751.472" width="129.582" height="94.769" style="fill:#bde0f5;"/><rect x="1697.67" y="751.472" width="14.604" height="94.769" style="fill:#0d273c;"/><rect x="1685.88" y="846.24" width="141.376" height="14.019" style="fill:#0d273c;"/><rect x="1685.88" y="846.24" width="126.772" height="14.019" style="fill:#66b7e7;"/></g><g><rect x="1862.9" y="751.472" width="129.582" height="94.769" style="fill:#bde0f5;"/><rect x="1862.9" y="751.472" width="14.604" height="94.769" style="fill:#0d273c;"/><rect x="1851.1" y="846.24" width="141.376" height="14.019" style="fill:#0d273c;"/><rect x="1851.1" y="846.24" width="126.772" height="14.019" style="fill:#66b7e7;"/></g><g><rect x="1697.67" y="372.398" width="129.582" height="94.769" style="fill:#bde0f5;"/><rect x="1697.67" y="372.398" width="14.604" height="94.769" style="fill:#0d273c;"/><rect x="1697.67" y="372.398" width="129.582" height="47.384" style="fill:#66b7e7;"/><rect x="1685.88" y="467.166" width="141.376" height="14.019" style="fill:#0d273c;"/><rect x="1685.88" y="467.166" width="126.772" height="14.019" style="fill:#66b7e7;"/></g><g><rect x="1697.67" y="561.935" width="129.582" height="94.769" style="fill:#bde0f5;"/><rect x="1697.67" y="561.935" width="14.604" height="94.769" style="fill:#0d273c;"/><rect x="1685.88" y="656.703" width="141.376" height="14.019" style="fill:#0d273c;"/><rect x="1685.88" y="656.703" width="126.772" height="14.019" style="fill:#66b7e7;"/></g><g><rect x="1862.9" y="561.935" width="129.582" height="94.769" style="fill:#bde0f5;"/><rect x="1862.9" y="561.935" width="14.604" height="94.769" style="fill:#0d273c;"/><rect x="1851.1" y="656.703" width="141.376" height="14.019" style="fill:#0d273c;"/><rect x="1851.1" y="656.703" width="126.772" height="14.019" style="fill:#66b7e7;"/></g><g><rect x="1862.9" y="372.398" width="129.582" height="94.769" style="fill:#bde0f5;"/><rect x="1862.9" y="372.398" width="14.604" height="94.769" style="fill:#0d273c;"/><rect x="1862.9" y="372.398" width="129.582" height="47.384" style="fill:#66b7e7;"/><rect x="1851.1" y="467.166" width="141.376" height="14.019" style="fill:#0d273c;"/><rect x="1851.1" y="467.166" width="126.772" height="14.019" style="fill:#66b7e7;"/></g></g><circle cx="712.388" cy="1410.54" r="671.641" style="fill:#bde0f5;"/><rect x="889.437" y="1175.66" width="70.363" height="234.878" style="fill:#0d273c;"/><circle cx="924.618" cy="1468.7" r="79.276" style="fill:#4cb96e;"/><g><path d="M1012.84,970.165c-0,-22.829 -18.535,-41.363 -41.364,-41.363l-318.218,-0c-22.83,-0 -41.364,18.534 -41.364,41.363l-0,193.031c-0,22.829 18.534,41.364 41.364,41.364l318.218,-0c22.829,-0 41.364,-18.535 41.364,-41.364l-0,-193.031Z" style="fill:#4cb96e;"/><path d="M1213.31,832.286c0,-22.829 -18.534,-41.363 -41.363,-41.363l-318.219,-0c-22.829,-0 -41.363,18.534 -41.363,41.363l-0,193.031c-0,22.829 18.534,41.364 41.363,41.364l318.219,-0c22.829,-0 41.363,-18.535 41.363,-41.364l0,-193.031Z" style="fill:#4cb96e;"/><path d="M1182.2,740.057c-0,-12.031 -9.768,-21.799 -21.8,-21.799l-167.706,-0c-12.031,-0 -21.799,9.768 -21.799,21.799l-0,101.731c-0,12.031 9.768,21.799 21.799,21.799l167.706,0c12.032,0 21.8,-9.768 21.8,-21.799l-0,-101.731Z" style="fill:#4cb96e;"/><path d="M1084.97,1039.22c-0,-6.495 -5.274,-11.769 -11.769,-11.769l-90.54,0c-6.495,0 -11.768,5.274 -11.768,11.769l-0,54.921c-0,6.496 5.273,11.769 11.768,11.769l90.54,0c6.495,0 11.769,-5.273 11.769,-11.769l-0,-54.921Z" style="fill:#4cb96e;"/><rect x="1279.11" y="1127.58" width="381.355" height="291.7" style="fill:#fff;"/><path d="M715.365,1410.54c0,-26.148 21.197,-47.345 47.345,-47.345c26.147,0 47.344,21.197 47.344,47.345l-94.689,-0Z" style="fill:#4cb96e;"/><path d="M779.928,1410.54c0,-16.638 13.488,-30.126 30.126,-30.126c16.638,-0 30.126,13.488 30.126,30.126l-60.252,-0Z" style="fill:#4cb96e;"/><rect x="381.355" y="1118.84" width="381.355" height="291.7" style="fill:#fff;"/><rect x="0" y="1118.84" width="381.355" height="291.7" style="fill:#66b7e7;"/><rect x="2094.49" y="1224.76" width="128.28" height="93.816" style="fill:#0d273c;"/><rect x="2258.05" y="1304.7" width="128.28" height="13.878" style="fill:#0d273c;"/><g><rect x="1422.38" y="1231.65" width="94.824" height="187.633" style="fill:#bde0f5;"/><path d="M1517.2,1208.67c-0,-26.185 -21.227,-47.411 -47.412,-47.411c-26.185,-0 -47.412,21.226 -47.412,47.411l94.824,0Z" style="fill:#0d273c;"/><clipPath id="_clip2"><path d="M1517.2,1208.67c-0,-26.185 -21.227,-47.411 -47.412,-47.411c-26.185,-0 -47.412,21.226 -47.412,47.411l94.824,0Z"/></clipPath><g clip-path="url(#_clip2)"><path d="M1531.66,1208.67c-0,-26.185 -21.227,-47.411 -47.412,-47.411c-26.185,-0 -47.412,21.226 -47.412,47.411l94.824,0Z" style="fill:#bde0f5;"/></g><rect x="1408.37" y="1388.28" width="108.826" height="15.504" style="fill:#66b7e7;"/><rect x="1408.37" y="1396.03" width="108.826" height="7.752" style="fill:#0d273c;"/><rect x="1392.82" y="1403.78" width="124.381" height="15.504" style="fill:#66b7e7;"/><rect x="1498.67" y="1388.28" width="18.53" height="15.504" style="fill:#0d273c;"/><rect x="1483.11" y="1403.78" width="34.085" height="15.504" style="fill:#0d273c;"/><rect x="1422.38" y="1231.65" width="14.458" height="156.625" style="fill:#0d273c;"/></g><g><rect x="524.621" y="1222.9" width="94.824" height="187.633" style="fill:#bde0f5;"/><path d="M524.621,1199.92c-0,-26.185 21.226,-47.412 47.411,-47.412c26.185,0 47.412,21.227 47.412,47.412l-94.823,0Z" style="fill:#0d273c;"/><clipPath id="_clip3"><path d="M524.621,1199.92c-0,-26.185 21.226,-47.412 47.411,-47.412c26.185,0 47.412,21.227 47.412,47.412l-94.823,0Z"/></clipPath><g clip-path="url(#_clip3)"><path d="M510.163,1199.92c-0,-26.185 21.227,-47.412 47.412,-47.412c26.184,0 47.411,21.227 47.411,47.412l-94.823,0Z" style="fill:#bde0f5;"/></g><rect x="524.621" y="1379.53" width="108.826" height="15.504" style="fill:#66b7e7;"/><rect x="524.621" y="1387.28" width="108.826" height="7.752" style="fill:#0d273c;"/><rect x="524.621" y="1395.03" width="124.381" height="15.504" style="fill:#66b7e7;"/><rect x="524.621" y="1379.53" width="18.53" height="15.504" style="fill:#0d273c;"/><rect x="524.621" y="1395.03" width="34.085" height="15.504" style="fill:#0d273c;"/><rect x="604.986" y="1222.9" width="14.458" height="156.625" style="fill:#0d273c;"/></g><path d="M1469.79,933.059l-190.677,194.525l381.355,-0l-190.678,-194.525Z" style="fill:#fff;"/><path d="M572.032,924.312l190.678,194.525l-381.355,0l190.677,-194.525Z" style="fill:#fff;"/><path d="M1469.79,933.059l381.355,-0l190.677,194.525l-381.354,-0l-190.678,-194.525Z" style="fill:#f26c6a;"/><path d="M572.032,924.312l-381.355,0l-190.677,194.525l381.355,0l190.677,-194.525Z" style="fill:#f26c6a;"/><path d="M572.032,924.312l-381.355,0l-190.677,194.525l381.355,0l190.677,-194.525Z" style="fill:#f26c6a;"/><clipPath id="_clip4"><path d="M572.032,924.312l-381.355,0l-190.677,194.525l381.355,0l190.677,-194.525Z"/></clipPath><g clip-path="url(#_clip4)"><path d="M141.508,938.86l486.355,-0" style="fill:none;stroke:#fff;stroke-width:2.31px;"/><path d="M119.914,966.432l486.355,-0" style="fill:none;stroke:#fff;stroke-width:2.31px;"/><path d="M17.009,1049.15l486.355,-0" style="fill:none;stroke:#fff;stroke-width:2.31px;"/><path d="M100.576,994.003l486.355,0" style="fill:none;stroke:#fff;stroke-width:2.31px;"/><path d="M-2.329,1076.72l486.355,0" style="fill:none;stroke:#fff;stroke-width:2.31px;"/><path d="M78.983,1021.58l486.355,-0" style="fill:none;stroke:#fff;stroke-width:2.31px;"/><path d="M-23.922,1104.29l486.355,-0" style="fill:none;stroke:#fff;stroke-width:2.31px;"/></g><rect x="1660.47" y="933.059" width="381.355" height="486.225" style="fill:#fff;"/><g><rect x="1803.73" y="1231.65" width="94.824" height="187.633" style="fill:#bde0f5;"/><path d="M1898.55,1208.67c-0,-26.185 -21.227,-47.411 -47.412,-47.411c-26.185,-0 -47.412,21.226 -47.412,47.411l94.824,0Z" style="fill:#0d273c;"/><clipPath id="_clip5"><path d="M1898.55,1208.67c-0,-26.185 -21.227,-47.411 -47.412,-47.411c-26.185,-0 -47.412,21.226 -47.412,47.411l94.824,0Z"/></clipPath><g clip-path="url(#_clip5)"><path d="M1913.01,1208.67c0,-26.185 -21.227,-47.411 -47.411,-47.411c-26.185,-0 -47.412,21.226 -47.412,47.411l94.823,0Z" style="fill:#bde0f5;"/></g><rect x="1789.73" y="1388.28" width="108.826" height="15.504" style="fill:#66b7e7;"/><rect x="1789.73" y="1396.03" width="108.826" height="7.752" style="fill:#0d273c;"/><rect x="1774.17" y="1403.78" width="124.381" height="15.504" style="fill:#66b7e7;"/><rect x="1880.02" y="1388.28" width="18.53" height="15.504" style="fill:#0d273c;"/><rect x="1864.47" y="1403.78" width="34.085" height="15.504" style="fill:#0d273c;"/><rect x="1803.73" y="1231.65" width="14.458" height="156.625" style="fill:#0d273c;"/></g><path d="M1851.14,738.534l-190.677,194.525l381.354,-0l-190.677,-194.525Z" style="fill:#fff;"/><rect x="1734.12" y="925.348" width="257.745" height="22.623" style="fill:#fff;"/><rect x="2041.82" y="933.059" width="381.355" height="486.225" style="fill:#66b7e7;"/><g><rect x="1705.22" y="1037.13" width="128.28" height="93.816" style="fill:#bde0f5;"/><rect x="1705.22" y="1037.13" width="14.458" height="93.816" style="fill:#0d273c;"/><rect x="1765.75" y="1037.13" width="7.229" height="93.816" style="fill:#fff;"/><path d="M1833.5,1087.65l-0,-7.229l-128.28,0l0,7.229l128.28,0Z" style="fill:#fff;"/><rect x="1693.54" y="1130.94" width="139.956" height="13.878" style="fill:#0d273c;"/><rect x="1693.54" y="1130.94" width="125.498" height="13.878" style="fill:#66b7e7;"/></g><g><rect x="1868.78" y="1037.13" width="128.28" height="93.816" style="fill:#bde0f5;"/><rect x="1868.78" y="1037.13" width="14.458" height="93.816" style="fill:#0d273c;"/><rect x="1929.31" y="1037.13" width="7.229" height="93.816" style="fill:#fff;"/><path d="M1997.06,1087.65l-0,-7.229l-128.28,0l-0,7.229l128.28,0Z" style="fill:#fff;"/><rect x="1857.11" y="1130.94" width="139.956" height="13.878" style="fill:#0d273c;"/><rect x="1857.11" y="1130.94" width="125.498" height="13.878" style="fill:#66b7e7;"/></g><rect x="2312.59" y="726.903" width="61.337" height="108.893" style="fill:#0d273c;"/><rect x="2281.93" y="738.534" width="61.337" height="194.525" style="fill:#f26c6a;"/><rect x="2343.26" y="738.534" width="61.337" height="194.525" style="fill:#0d273c;"/><path d="M1851.14,738.534l381.355,-0l190.677,194.525l-381.355,-0l-190.677,-194.525Z" style="fill:#f26c6a;"/><path d="M1917.94,769.141l-0,-9.353l289.422,9.353l140.507,133.989l-0,9.353l-291.238,0l-138.691,-143.342Z" style="fill:#0d273c;"/><path d="M1917.94,759.788l289.422,-0l140.507,143.342l-289.423,-0l-140.506,-143.342Z" style="fill:#ffdd79;"/><clipPath id="_clip6"><path d="M1917.94,759.788l289.422,-0l140.507,143.342l-289.423,-0l-140.506,-143.342Z"/></clipPath><g clip-path="url(#_clip6)"><path d="M2155.53,738.534l181.304,184.962" style="fill:none;stroke:#fff;stroke-width:4.6px;"/><path d="M2118.91,738.534l181.304,184.962" style="fill:none;stroke:#fff;stroke-width:4.6px;"/><path d="M2082.3,738.534l181.304,184.962" style="fill:none;stroke:#fff;stroke-width:4.6px;"/><path d="M2045.69,738.534l181.304,184.962" style="fill:none;stroke:#fff;stroke-width:4.6px;"/><path d="M2009.07,738.534l181.304,184.962" style="fill:none;stroke:#fff;stroke-width:4.6px;"/><path d="M1972.46,738.534l181.304,184.962" style="fill:none;stroke:#fff;stroke-width:4.6px;"/><path d="M1935.85,738.534l181.304,184.962" style="fill:none;stroke:#fff;stroke-width:4.6px;"/><path d="M1879.47,778.645l403.22,-0" style="fill:none;stroke:#fff;stroke-width:4.6px;"/><path d="M1905.38,804.557l403.22,-0" style="fill:none;stroke:#fff;stroke-width:4.6px;"/><path d="M1931.3,830.469l403.22,0" style="fill:none;stroke:#fff;stroke-width:4.6px;"/><path d="M1957.21,856.381l403.221,0" style="fill:none;stroke:#fff;stroke-width:4.6px;"/><path d="M1983.12,882.293l403.221,0" style="fill:none;stroke:#fff;stroke-width:4.6px;"/></g><rect x="2258.05" y="1224.76" width="128.28" height="93.816" style="fill:#0d273c;"/><rect x="2094.49" y="1224.76" width="128.28" height="93.816" style="fill:#0d273c;"/><rect x="2258.05" y="1318.58" width="139.956" height="13.878" style="fill:#0d273c;"/><path d="M2111.28,1419.28c0,-26.147 21.197,-47.344 47.345,-47.344c26.148,-0 47.344,21.197 47.344,47.344l-94.689,0Z" style="fill:#0d273c;"/><path d="M2175.84,1419.28c0,-16.638 13.488,-30.126 30.126,-30.126c16.639,0 30.127,13.488 30.127,30.126l-60.253,0Z" style="fill:#0d273c;"/><path d="M2339.41,1419.28c0,-16.638 13.488,-30.126 30.126,-30.126c16.639,0 30.127,13.488 30.127,30.126l-60.253,0Z" style="fill:#0d273c;"/><path d="M2274.85,1419.28c0,-26.147 21.197,-47.344 47.345,-47.344c26.147,-0 47.344,21.197 47.344,47.344l-94.689,0Z" style="fill:#0d273c;"/><rect x="2258.05" y="1130.94" width="139.956" height="13.878" style="fill:#0d273c;"/><rect x="2094.49" y="1318.58" width="139.956" height="13.878" style="fill:#0d273c;"/><rect x="2094.49" y="1130.94" width="139.956" height="13.878" style="fill:#0d273c;"/><rect x="208.319" y="1216.01" width="128.28" height="93.816" style="fill:#0d273c;"/><path d="M319.804,1410.54c-0,-26.148 -21.197,-47.345 -47.345,-47.345c-26.147,0 -47.344,21.197 -47.344,47.345l94.689,-0Z" style="fill:#0d273c;"/><path d="M255.241,1410.54c0,-16.638 -13.488,-30.126 -30.126,-30.126c-16.638,-0 -30.126,13.488 -30.126,30.126l60.252,-0Z" style="fill:#0d273c;"/><path d="M91.677,1410.54c0,-16.638 -13.488,-30.126 -30.126,-30.126c-16.638,-0 -30.126,13.488 -30.126,30.126l60.252,-0Z" style="fill:#0d273c;"/><path d="M156.24,1410.54c0,-26.148 -21.197,-47.345 -47.345,-47.345c-26.147,0 -47.344,21.197 -47.344,47.345l94.689,-0Z" style="fill:#0d273c;"/><rect x="196.643" y="1309.83" width="139.956" height="13.878" style="fill:#0d273c;"/><rect x="33.08" y="1309.83" width="139.956" height="13.878" style="fill:#0d273c;"/><rect x="44.756" y="1216.01" width="128.28" height="93.816" style="fill:#0d273c;"/><rect x="2094.49" y="1304.7" width="128.28" height="13.878" style="fill:#0d273c;"/><rect x="2258.05" y="1304.7" width="128.28" height="13.878" style="fill:#0d273c;"/><rect x="2258.05" y="1037.13" width="128.28" height="93.816" style="fill:#0d273c;"/><rect x="2094.49" y="1037.13" width="128.28" height="93.816" style="fill:#0d273c;"/><rect x="2094.49" y="1117.06" width="128.28" height="13.878" style="fill:#0d273c;"/><rect x="2258.05" y="1117.06" width="128.28" height="13.878" style="fill:#0d273c;"/><path d="M1106.16,874.827c0,-7.568 -3.006,-14.825 -8.357,-20.176c-5.351,-5.351 -12.608,-8.358 -20.176,-8.358c-0.001,0 -0.001,0 -0.002,0c-7.567,0 -14.825,3.007 -20.176,8.358c-5.351,5.351 -8.357,12.608 -8.357,20.176c-0,26.535 -0,61.998 -0,61.998l57.068,0l0,-61.998Z" style="fill:#0d273c;"/><path d="M706.653,874.827c0,-7.568 3.006,-14.825 8.357,-20.176c5.351,-5.351 12.609,-8.358 20.177,-8.358c0,0 0.001,0 0.001,0c7.568,0 14.825,3.007 20.176,8.358c5.352,5.351 8.358,12.608 8.358,20.176c-0,26.535 -0,61.998 -0,61.998l-57.069,0c0,0 0,-35.463 0,-61.998Z" style="fill:#0d273c;"/><circle cx="1086.82" cy="874.275" r="9.797" style="fill:#fff;"/><circle cx="725.997" cy="874.275" r="9.797" style="fill:#fff;"/><path d="M1115.95,893.881c5.413,0 9.8,-4.387 9.8,-9.8c0,-0.002 0,-0.004 0,-0.006c0,-5.413 -4.387,-9.8 -9.8,-9.8c-4.897,-0 -9.794,-0 -9.794,-0l0,19.606c0,0 4.897,0 9.794,0Z" style="fill:#ffdd79;"/><path d="M696.859,893.881c-5.412,0 -9.8,-4.387 -9.8,-9.8c0,-0.002 0,-0.004 0,-0.006c0,-5.413 4.388,-9.8 9.8,-9.8c4.898,-0 9.794,-0 9.794,-0l0,19.606c0,0 -4.896,0 -9.794,0Z" style="fill:#ffdd79;"/><circle cx="1054.26" cy="935.818" r="28.545" style="fill:#4cb96e;"/><circle cx="758.553" cy="935.818" r="28.545" style="fill:#4cb96e;"/><circle cx="1100.99" cy="935.818" r="28.545" style="fill:#4cb96e;"/><circle cx="711.822" cy="935.818" r="28.545" style="fill:#4cb96e;"/></g><circle cx="812.238" cy="531.155" r="129.304" style="fill:#ffdd79;"/></g></g><path d="M0,1410.54c0,669.141 542.446,1211.59 1211.59,1211.59c669.141,0 1211.59,-542.446 1211.59,-1211.59l-2423.17,0Z" style="fill:#4cb96e;"/></g></svg>