<?xml version="1.0" encoding="UTF-8" standalone="no"?>
<!DOCTYPE svg PUBLIC "-//W3C//DTD SVG 1.1//EN" "http://www.w3.org/Graphics/SVG/1.1/DTD/svg11.dtd">
<svg width="100%" height="100%" viewBox="0 0 56 56" version="1.1" xmlns="http://www.w3.org/2000/svg" xmlns:xlink="http://www.w3.org/1999/xlink" xml:space="preserve" xmlns:serif="http://www.serif.com/" style="fill-rule:evenodd;clip-rule:evenodd;stroke-linejoin:round;stroke-miterlimit:2;">
    <g transform="matrix(1,0,0,1,-4298.58,-3642.7)">
        <g transform="matrix(1,0,0,3.49489,4088.58,0)">
            <g transform="matrix(0.0872655,0,0,0.0249695,171.185,985.115)">
                <g transform="matrix(10.5556,0,0,7.53968,233.68,2108.99)">
                    <path d="M80,28.2C80,25.882 78.656,24 77,24L23,24C21.344,24 20,25.882 20,28.2L20,103.8C20,106.118 21.344,108 23,108L77,108C78.656,108 80,106.118 80,103.8L80,28.2Z" style="fill:rgb(13,39,60);"/>
                </g>
                <g transform="matrix(58.3333,0,0,6.25,-1338.54,2256.61)">
                    <rect x="32" y="48" width="8" height="16" style="fill:white;"/>
                </g>
                <g transform="matrix(37.5,0,0,6.25,-671.875,2073.28)">
                    <rect x="32" y="48" width="8" height="16" style="fill:white;"/>
                </g>
                <g transform="matrix(58.3333,0,0,6.25,-1338.54,2439.94)">
                    <rect x="32" y="48" width="8" height="16" style="fill:white;"/>
                </g>
            </g>
        </g>
    </g>
</svg>
