<?xml version="1.0" encoding="UTF-8" standalone="no"?>
<!DOCTYPE svg PUBLIC "-//W3C//DTD SVG 1.1//EN" "http://www.w3.org/Graphics/SVG/1.1/DTD/svg11.dtd">
<svg width="100%" height="100%" viewBox="0 0 56 56" version="1.1" xmlns="http://www.w3.org/2000/svg" xmlns:xlink="http://www.w3.org/1999/xlink" xml:space="preserve" xmlns:serif="http://www.serif.com/" style="fill-rule:evenodd;clip-rule:evenodd;stroke-linejoin:round;stroke-miterlimit:2;">
    <g transform="matrix(1,0,0,1,-4457.84,-3642.7)">
        <g transform="matrix(1,0,0,3.49489,4088.58,0)">
            <g transform="matrix(0.0872655,0,0,0.0249695,290.997,985.547)">
                <g transform="matrix(10.5556,0,0,7.53968,685.643,2091.67)">
                    <path d="M80,28.2C80,25.882 78.656,24 77,24L23,24C21.344,24 20,25.882 20,28.2L20,103.8C20,106.118 21.344,108 23,108L77,108C78.656,108 80,106.118 80,103.8L80,28.2Z" style="fill:rgb(13,39,60);"/>
                </g>
                <g transform="matrix(12.5,0,0,6.25,763.421,2055.96)">
                    <rect x="32" y="48" width="8" height="16" style="fill:white;"/>
                </g>
                <g transform="matrix(2.29621e-15,-37.5,6.25,3.82702e-16,863.421,4022.63)">
                    <rect x="32" y="48" width="8" height="16" style="fill:white;"/>
                </g>
            </g>
        </g>
    </g>
</svg>
