<?xml version="1.0" encoding="UTF-8" standalone="no"?>
<!DOCTYPE svg PUBLIC "-//W3C//DTD SVG 1.1//EN" "http://www.w3.org/Graphics/SVG/1.1/DTD/svg11.dtd">
<svg width="100%" height="100%" viewBox="0 0 293 55" version="1.1" xmlns="http://www.w3.org/2000/svg" xmlns:xlink="http://www.w3.org/1999/xlink" xml:space="preserve" xmlns:serif="http://www.serif.com/" style="fill-rule:evenodd;clip-rule:evenodd;stroke-linejoin:round;stroke-miterlimit:2;">
    <g transform="matrix(1,0,0,1,-4298.58,-3400.63)">
        <g transform="matrix(1,0,0,3.49489,4088.58,0)">
            <g transform="matrix(0.165365,0,0,0.0370818,-2361.24,871.912)">
                <g transform="matrix(0.438983,0,0,0.474743,11222,1724.12)">
                    <rect x="9856.37" y="2468.8" width="755.967" height="534.686" style="fill:rgb(13,39,60);"/>
                </g>
                <g transform="matrix(3.07195,0,0,1.7102,-19020.4,-4888.86)">
                    <path d="M11307.2,4453.12L11361.2,4552.1L11253.2,4552.1L11307.2,4453.12Z" style="fill:rgb(13,39,60);"/>
                </g>
                <g transform="matrix(0.109153,0,0,0.305374,14597.6,2232.81)">
                    <path d="M10612.3,2641.18C10612.3,2545.98 10443.1,2468.8 10234.4,2468.8C10234.4,2468.8 10234.3,2468.8 10234.3,2468.8C10025.6,2468.8 9856.37,2545.98 9856.37,2641.18C9856.37,2797.45 9856.37,3003.49 9856.37,3003.49L10612.3,3003.49C10612.3,3003.49 10612.3,2797.45 10612.3,2641.18Z" style="fill:white;"/>
                </g>
            </g>
        </g>
        <g transform="matrix(1,0,0,3.49489,4088.58,0)">
            <g transform="matrix(1,0,0,0.286132,-898.699,694.277)">
                <text x="1182.09px" y="1014.46px" style="font-family:'Arial-Black', 'Arial', sans-serif;font-weight:900;font-size:36px;fill:rgb(13,39,60);">L<tspan x="1205.85px 1236.19px 1266.54px 1295.96px 1322.32px 1350.68px 1377.04px " y="1014.46px 1014.46px 1014.46px 1014.46px 1014.46px 1014.46px 1014.46px ">OGOTYPE</tspan></text>
            </g>
        </g>
    </g>
</svg>
