<?xml version="1.0" encoding="UTF-8" standalone="no"?><!DOCTYPE svg PUBLIC "-//W3C//DTD SVG 1.1//EN" "http://www.w3.org/Graphics/SVG/1.1/DTD/svg11.dtd"><svg width="100%" height="100%" viewBox="0 0 1555 1575" version="1.1" xmlns="http://www.w3.org/2000/svg" xmlns:xlink="http://www.w3.org/1999/xlink" xml:space="preserve" xmlns:serif="http://www.serif.com/" style="fill-rule:evenodd;clip-rule:evenodd;stroke-linecap:round;stroke-linejoin:round;stroke-miterlimit:1.5;"><rect x="0" y="0" width="1554.83" height="1575" style="fill:#fff;"/><clipPath id="_clip1"><rect x="0" y="0" width="1554.83" height="1575"/></clipPath><g clip-path="url(#_clip1)"><circle cx="1554.83" cy="1554.83" r="1554.83" style="fill:#bde0f5;"/><path d="M897.217,526.62c-19.061,-33.016 -54.289,-53.354 -92.413,-53.354c-38.123,-0 -73.351,20.338 -92.412,53.354l184.825,0Z" style="fill:#fff;"/><path d="M1061.79,526.62c-27.796,-48.143 -79.164,-77.8 -134.754,-77.8c-55.591,0 -106.959,29.657 -134.754,77.8l269.508,0Z" style="fill:#fff;"/><g><rect x="891.113" y="728.771" width="331.857" height="592.391" style="fill:#66b7e7;"/><rect x="891.113" y="740.086" width="331.857" height="11.315" style="fill:#0d273c;"/><rect x="1072.39" y="617.534" width="55.815" height="64.31" style="fill:#66b7e7;"/><rect x="835.298" y="617.534" width="55.815" height="64.31" style="fill:#66b7e7;"/><rect x="1016.58" y="617.534" width="55.815" height="64.31" style="fill:#fff;"/><rect x="779.483" y="617.534" width="55.815" height="64.31" style="fill:#fff;"/><rect x="891.113" y="681.843" width="357.428" height="46.928" style="fill:#0d273c;"/><rect x="533.685" y="681.843" width="357.428" height="46.928" style="fill:#66b7e7;"/><rect x="559.256" y="728.771" width="331.857" height="592.391" style="fill:#fff;"/><rect x="559.256" y="740.086" width="331.857" height="11.315" style="fill:#66b7e7;"/><rect x="891.113" y="757.059" width="331.857" height="5.658" style="fill:#0d273c;"/><rect x="559.256" y="757.059" width="331.857" height="5.658" style="fill:#66b7e7;"/><rect x="725.185" y="1288.18" width="108.237" height="26.983" style="fill:#0d273c;"/><rect x="930.059" y="988.607" width="111.63" height="81.639" style="fill:#0d273c;"/><rect x="930.059" y="825.328" width="111.63" height="81.639" style="fill:#0d273c;"/><rect x="930.059" y="1151.88" width="111.63" height="81.639" style="fill:#0d273c;"/><rect x="1072.39" y="988.607" width="111.63" height="81.639" style="fill:#0d273c;"/><rect x="1072.39" y="825.328" width="111.63" height="81.639" style="fill:#0d273c;"/><rect x="1072.39" y="1151.88" width="111.63" height="81.639" style="fill:#0d273c;"/><rect x="930.059" y="1070.25" width="121.79" height="12.077" style="fill:#0d273c;"/><rect x="930.059" y="906.967" width="121.79" height="12.077" style="fill:#0d273c;"/><rect x="930.059" y="1233.53" width="121.79" height="12.077" style="fill:#0d273c;"/><rect x="1072.39" y="1070.25" width="121.79" height="12.077" style="fill:#0d273c;"/><rect x="1072.39" y="906.967" width="121.79" height="12.077" style="fill:#0d273c;"/><rect x="1072.39" y="1233.53" width="121.79" height="12.077" style="fill:#0d273c;"/><g><rect x="591.319" y="1151.88" width="111.63" height="81.639" style="fill:#bde0f5;"/><rect x="591.319" y="1151.88" width="12.581" height="81.639" style="fill:#0d273c;"/><rect x="581.158" y="1233.53" width="121.79" height="12.077" style="fill:#0d273c;"/><rect x="581.158" y="1233.53" width="109.209" height="12.077" style="fill:#66b7e7;"/></g><g><rect x="733.653" y="1151.88" width="111.63" height="81.639" style="fill:#bde0f5;"/><rect x="733.653" y="1151.88" width="12.581" height="81.639" style="fill:#0d273c;"/><rect x="723.492" y="1233.53" width="121.79" height="12.077" style="fill:#0d273c;"/><rect x="723.492" y="1233.53" width="109.209" height="12.077" style="fill:#66b7e7;"/></g><g><rect x="591.319" y="825.328" width="111.63" height="81.639" style="fill:#bde0f5;"/><rect x="591.319" y="825.328" width="12.581" height="81.639" style="fill:#0d273c;"/><rect x="591.319" y="825.328" width="111.63" height="40.82" style="fill:#66b7e7;"/><rect x="581.158" y="906.967" width="121.79" height="12.077" style="fill:#0d273c;"/><rect x="581.158" y="906.967" width="109.209" height="12.077" style="fill:#66b7e7;"/></g><g><rect x="591.319" y="988.607" width="111.63" height="81.639" style="fill:#bde0f5;"/><rect x="591.319" y="988.607" width="12.581" height="81.639" style="fill:#0d273c;"/><rect x="581.158" y="1070.25" width="121.79" height="12.077" style="fill:#0d273c;"/><rect x="581.158" y="1070.25" width="109.209" height="12.077" style="fill:#66b7e7;"/></g><g><rect x="733.653" y="988.607" width="111.63" height="81.639" style="fill:#bde0f5;"/><rect x="733.653" y="988.607" width="12.581" height="81.639" style="fill:#0d273c;"/><rect x="723.492" y="1070.25" width="121.79" height="12.077" style="fill:#0d273c;"/><rect x="723.492" y="1070.25" width="109.209" height="12.077" style="fill:#66b7e7;"/></g><g><rect x="733.653" y="825.328" width="111.63" height="81.639" style="fill:#bde0f5;"/><rect x="733.653" y="825.328" width="12.581" height="81.639" style="fill:#0d273c;"/><rect x="733.653" y="825.328" width="111.63" height="40.82" style="fill:#66b7e7;"/><rect x="723.492" y="906.967" width="121.79" height="12.077" style="fill:#0d273c;"/><rect x="723.492" y="906.967" width="109.209" height="12.077" style="fill:#66b7e7;"/></g></g><g><rect x="1554.83" y="898.047" width="331.857" height="423.115" style="fill:#66b7e7;"/><path d="M1720.75,728.771l165.928,169.276l-331.856,0l165.928,-169.276Z" style="fill:#0d273c;"/><rect x="1222.97" y="898.047" width="331.857" height="423.115" style="fill:#fff;"/><rect x="1388.9" y="1288.18" width="108.237" height="26.983" style="fill:#0d273c;"/><path d="M1719.28,728.771l-330.874,-0l-165.438,168.775l330.875,0l165.437,-168.775Z" style="fill:#f26c6a;"/><clipPath id="_clip2"><path d="M1719.28,728.771l-330.874,-0l-165.438,168.775l330.875,0l165.437,-168.775Z"/></clipPath><g clip-path="url(#_clip2)"><path d="M1345.75,741.393l421.976,-0" style="fill:none;stroke:#fff;stroke-width:2.08px;"/><path d="M1327.01,765.315l421.975,-0" style="fill:none;stroke:#fff;stroke-width:2.08px;"/><path d="M1237.73,837.081l421.975,-0" style="fill:none;stroke:#fff;stroke-width:2.08px;"/><path d="M1310.23,789.237l421.976,-0" style="fill:none;stroke:#fff;stroke-width:2.08px;"/><path d="M1220.95,861.003l421.975,-0" style="fill:none;stroke:#fff;stroke-width:2.08px;"/><path d="M1291.5,813.159l421.976,-0" style="fill:none;stroke:#fff;stroke-width:2.08px;"/><path d="M1202.21,884.925l421.975,-0" style="fill:none;stroke:#fff;stroke-width:2.08px;"/></g><g><rect x="1255.03" y="988.607" width="111.63" height="81.639" style="fill:#bde0f5;"/><rect x="1255.03" y="988.607" width="12.581" height="81.639" style="fill:#0d273c;"/><rect x="1307.7" y="988.607" width="6.291" height="81.639" style="fill:#fff;"/><path d="M1366.66,1032.57l0,-6.291l-111.629,0l-0,6.291l111.629,-0Z" style="fill:#fff;"/><rect x="1244.87" y="1070.25" width="121.79" height="12.077" style="fill:#0d273c;"/><rect x="1244.87" y="1070.25" width="109.209" height="12.077" style="fill:#66b7e7;"/></g><g><rect x="1255.03" y="1151.88" width="111.63" height="81.639" style="fill:#bde0f5;"/><rect x="1255.03" y="1151.88" width="12.581" height="81.639" style="fill:#0d273c;"/><rect x="1307.7" y="1151.88" width="6.291" height="81.639" style="fill:#fff;"/><path d="M1366.66,1195.85l0,-6.29l-111.629,-0l-0,6.29l111.629,0Z" style="fill:#fff;"/><rect x="1244.87" y="1233.53" width="121.79" height="12.077" style="fill:#0d273c;"/><rect x="1244.87" y="1233.53" width="109.209" height="12.077" style="fill:#66b7e7;"/></g><g><rect x="1397.37" y="988.607" width="111.63" height="81.639" style="fill:#bde0f5;"/><rect x="1397.37" y="988.607" width="12.581" height="81.639" style="fill:#0d273c;"/><rect x="1450.04" y="988.607" width="6.291" height="81.639" style="fill:#fff;"/><path d="M1509,1032.57l0,-6.291l-111.629,0l-0,6.291l111.629,-0Z" style="fill:#fff;"/><rect x="1387.2" y="1070.25" width="121.79" height="12.077" style="fill:#0d273c;"/><rect x="1387.2" y="1070.25" width="109.209" height="12.077" style="fill:#66b7e7;"/></g><g><rect x="1397.37" y="1151.88" width="111.63" height="81.639" style="fill:#bde0f5;"/><rect x="1397.37" y="1151.88" width="12.581" height="81.639" style="fill:#0d273c;"/><rect x="1450.04" y="1151.88" width="6.291" height="81.639" style="fill:#fff;"/><path d="M1509,1195.85l0,-6.29l-111.629,-0l-0,6.29l111.629,0Z" style="fill:#fff;"/><rect x="1387.2" y="1233.53" width="121.79" height="12.077" style="fill:#0d273c;"/><rect x="1387.2" y="1233.53" width="109.209" height="12.077" style="fill:#66b7e7;"/></g></g><g><rect x="1222.97" y="1321.16" width="331.857" height="253.838" style="fill:#66b7e7;"/><path d="M1388.9,1151.88l165.928,169.277l-331.857,-0l165.929,-169.277Z" style="fill:#0d273c;"/><rect x="891.113" y="1321.16" width="331.857" height="253.838" style="fill:#fff;"/><rect x="1082.76" y="1411.72" width="82.516" height="163.279" style="fill:#bde0f5;"/><path d="M1165.28,1391.72c-0,-22.786 -18.472,-41.258 -41.258,-41.258c-22.786,0 -41.258,18.472 -41.258,41.258l82.516,0Z" style="fill:#0d273c;"/><clipPath id="_clip3"><path d="M1165.28,1391.72c-0,-22.786 -18.472,-41.258 -41.258,-41.258c-22.786,0 -41.258,18.472 -41.258,41.258l82.516,0Z"/></clipPath><g clip-path="url(#_clip3)"><path d="M1177.86,1391.72c-0,-22.786 -18.472,-41.258 -41.258,-41.258c-22.786,0 -41.258,18.472 -41.258,41.258l82.516,0Z" style="fill:#bde0f5;"/></g><rect x="1070.58" y="1548.02" width="94.701" height="13.492" style="fill:#66b7e7;"/><rect x="1070.58" y="1554.76" width="94.701" height="6.746" style="fill:#0d273c;"/><rect x="1057.04" y="1561.51" width="108.237" height="13.492" style="fill:#66b7e7;"/><rect x="1149.15" y="1548.02" width="16.125" height="13.492" style="fill:#0d273c;"/><rect x="1135.62" y="1561.51" width="29.661" height="13.492" style="fill:#0d273c;"/><rect x="923.175" y="1411.72" width="111.63" height="81.639" style="fill:#bde0f5;"/><rect x="923.175" y="1411.72" width="12.581" height="81.639" style="fill:#0d273c;"/><rect x="975.845" y="1411.72" width="6.291" height="81.639" style="fill:#fff;"/><path d="M1034.81,1455.69l-0,-6.29l-111.63,-0l0,6.29l111.63,0Z" style="fill:#fff;"/><rect x="1082.76" y="1411.72" width="12.581" height="136.296" style="fill:#0d273c;"/><rect x="1261.92" y="1411.72" width="111.63" height="81.639" style="fill:#0d273c;"/><rect x="1261.92" y="1493.36" width="121.79" height="12.077" style="fill:#0d273c;"/><rect x="1404.25" y="1493.36" width="121.79" height="12.077" style="fill:#0d273c;"/><rect x="1404.25" y="1411.72" width="111.63" height="81.639" style="fill:#0d273c;"/><rect x="913.015" y="1493.36" width="121.79" height="12.077" style="fill:#0d273c;"/><rect x="913.015" y="1493.36" width="109.209" height="12.077" style="fill:#66b7e7;"/><path d="M1388.9,1151.88l-331.857,0l-165.928,169.277l331.856,-0l165.929,-169.277Z" style="fill:#f26c6a;"/><path d="M1330.77,1178.52l0,-8.139l-251.856,8.139l-122.27,116.597l0,8.14l253.436,-0l120.69,-124.737Z" style="fill:#0d273c;"/><path d="M1330.77,1170.38l-251.856,-0l-122.27,124.736l251.857,0l122.269,-124.736Z" style="fill:#ffdd79;"/><clipPath id="_clip4"><path d="M1330.77,1170.38l-251.856,-0l-122.27,124.736l251.857,0l122.269,-124.736Z"/></clipPath><g clip-path="url(#_clip4)"><path d="M1124.02,1151.88l-157.772,160.955" style="fill:none;stroke:#fff;stroke-width:4.17px;"/><path d="M1155.88,1151.88l-157.771,160.955" style="fill:none;stroke:#fff;stroke-width:4.17px;"/><path d="M1187.74,1151.88l-157.771,160.955" style="fill:none;stroke:#fff;stroke-width:4.17px;"/><path d="M1219.6,1151.88l-157.771,160.955" style="fill:none;stroke:#fff;stroke-width:4.17px;"/><path d="M1251.46,1151.88l-157.772,160.955" style="fill:none;stroke:#fff;stroke-width:4.17px;"/><path d="M1283.33,1151.88l-157.772,160.955" style="fill:none;stroke:#fff;stroke-width:4.17px;"/><path d="M1315.19,1151.88l-157.771,160.955" style="fill:none;stroke:#fff;stroke-width:4.17px;"/><path d="M1364.25,1186.79l-350.884,0" style="fill:none;stroke:#fff;stroke-width:4.17px;"/><path d="M1341.7,1209.34l-350.884,-0" style="fill:none;stroke:#fff;stroke-width:4.17px;"/><path d="M1319.15,1231.89l-350.884,-0" style="fill:none;stroke:#fff;stroke-width:4.17px;"/><path d="M1296.6,1254.44l-350.884,-0" style="fill:none;stroke:#fff;stroke-width:4.17px;"/><path d="M1274.05,1276.99l-350.884,0" style="fill:none;stroke:#fff;stroke-width:4.17px;"/></g></g><g><rect x="559.256" y="1321.16" width="331.857" height="253.838" style="fill:#66b7e7;"/><path d="M725.185,1151.88l165.928,169.277l-331.857,-0l165.929,-169.277Z" style="fill:#0d273c;"/><rect x="227.4" y="1321.16" width="331.857" height="253.838" style="fill:#fff;"/><rect x="419.049" y="1411.72" width="82.516" height="163.279" style="fill:#bde0f5;"/><path d="M501.565,1391.72c-0,-22.786 -18.472,-41.258 -41.258,-41.258c-22.786,0 -41.258,18.472 -41.258,41.258l82.516,0Z" style="fill:#0d273c;"/><clipPath id="_clip5"><path d="M501.565,1391.72c-0,-22.786 -18.472,-41.258 -41.258,-41.258c-22.786,0 -41.258,18.472 -41.258,41.258l82.516,0Z"/></clipPath><g clip-path="url(#_clip5)"><path d="M514.146,1391.72c-0,-22.786 -18.472,-41.258 -41.258,-41.258c-22.786,0 -41.258,18.472 -41.258,41.258l82.516,0Z" style="fill:#bde0f5;"/></g><rect x="406.864" y="1548.02" width="94.701" height="13.492" style="fill:#66b7e7;"/><rect x="406.864" y="1554.76" width="94.701" height="6.746" style="fill:#0d273c;"/><rect x="393.328" y="1561.51" width="108.237" height="13.492" style="fill:#66b7e7;"/><rect x="485.439" y="1548.02" width="16.125" height="13.492" style="fill:#0d273c;"/><rect x="471.904" y="1561.51" width="29.661" height="13.492" style="fill:#0d273c;"/><g><rect x="259.462" y="1411.72" width="111.63" height="81.639" style="fill:#bde0f5;"/><rect x="259.462" y="1411.72" width="12.581" height="81.639" style="fill:#0d273c;"/><rect x="312.132" y="1411.72" width="6.291" height="81.639" style="fill:#fff;"/><path d="M371.092,1455.69l-0,-6.29l-111.63,-0l0,6.29l111.63,0Z" style="fill:#fff;"/><rect x="249.302" y="1493.36" width="121.79" height="12.077" style="fill:#0d273c;"/><rect x="249.302" y="1493.36" width="109.209" height="12.077" style="fill:#66b7e7;"/></g><rect x="419.049" y="1411.72" width="12.581" height="136.296" style="fill:#0d273c;"/><rect x="598.203" y="1411.72" width="111.63" height="81.639" style="fill:#0d273c;"/><rect x="598.203" y="1493.36" width="121.79" height="12.077" style="fill:#0d273c;"/><rect x="740.537" y="1493.36" width="121.79" height="12.077" style="fill:#0d273c;"/><rect x="740.537" y="1411.72" width="111.63" height="81.639" style="fill:#0d273c;"/><path d="M725.185,1151.88l-331.857,0l-165.928,169.277l331.856,-0l165.929,-169.277Z" style="fill:#f26c6a;"/><path d="M667.055,1178.52l0,-8.139l-251.856,8.139l-122.27,116.597l0,8.14l253.436,-0l120.69,-124.737Z" style="fill:#0d273c;"/><path d="M667.055,1170.38l-251.856,-0l-122.27,124.736l251.857,0l122.269,-124.736Z" style="fill:#ffdd79;"/><clipPath id="_clip6"><path d="M667.055,1170.38l-251.856,-0l-122.27,124.736l251.857,0l122.269,-124.736Z"/></clipPath><g clip-path="url(#_clip6)"><path d="M460.307,1151.88l-157.772,160.955" style="fill:none;stroke:#fff;stroke-width:4.17px;"/><path d="M492.168,1151.88l-157.771,160.955" style="fill:none;stroke:#fff;stroke-width:4.17px;"/><path d="M524.029,1151.88l-157.771,160.955" style="fill:none;stroke:#fff;stroke-width:4.17px;"/><path d="M555.89,1151.88l-157.771,160.955" style="fill:none;stroke:#fff;stroke-width:4.17px;"/><path d="M587.752,1151.88l-157.772,160.955" style="fill:none;stroke:#fff;stroke-width:4.17px;"/><path d="M619.613,1151.88l-157.772,160.955" style="fill:none;stroke:#fff;stroke-width:4.17px;"/><path d="M651.474,1151.88l-157.771,160.955" style="fill:none;stroke:#fff;stroke-width:4.17px;"/><path d="M700.532,1186.79l-350.884,0" style="fill:none;stroke:#fff;stroke-width:4.17px;"/><path d="M677.983,1209.34l-350.884,-0" style="fill:none;stroke:#fff;stroke-width:4.17px;"/><path d="M655.434,1231.89l-350.884,-0" style="fill:none;stroke:#fff;stroke-width:4.17px;"/><path d="M632.885,1254.44l-350.884,-0" style="fill:none;stroke:#fff;stroke-width:4.17px;"/><path d="M610.337,1276.99l-350.885,0" style="fill:none;stroke:#fff;stroke-width:4.17px;"/></g></g></g></svg>