<?xml version="1.0" encoding="UTF-8" standalone="no"?><!DOCTYPE svg PUBLIC "-//W3C//DTD SVG 1.1//EN" "http://www.w3.org/Graphics/SVG/1.1/DTD/svg11.dtd"><svg width="100%" height="100%" viewBox="0 0 1978 1978" version="1.1" xmlns="http://www.w3.org/2000/svg" xmlns:xlink="http://www.w3.org/1999/xlink" xml:space="preserve" xmlns:serif="http://www.serif.com/" style="fill-rule:evenodd;clip-rule:evenodd;stroke-linecap:round;stroke-linejoin:round;stroke-miterlimit:1.5;"><g><circle cx="988.636" cy="988.636" r="988.636" style="fill:#bde0f5;"/><clipPath id="_clip1"><circle cx="988.636" cy="988.636" r="988.636"/></clipPath><g clip-path="url(#_clip1)"><path d="M888.361,704.232c-18.262,-31.631 -52.011,-51.116 -88.534,-51.116c-36.524,0 -70.273,19.485 -88.535,51.116l177.069,-0Z" style="fill:#fff;"/><path d="M1046.03,704.232c-26.629,-46.123 -75.841,-74.535 -129.099,-74.535c-53.258,-0 -102.47,28.412 -129.099,74.535l258.198,-0Z" style="fill:#fff;"/><rect x="390.654" y="1085.12" width="54.484" height="297.476" style="fill:#0d273c;"/><path d="M404.767,814.7c-0,-32 25.979,-57.979 57.979,-57.979l226.525,-0c31.999,-0 57.979,25.979 57.979,57.979l-0,115.957c-0,32 -25.98,57.979 -57.979,57.979l-226.525,0c-32,0 -57.979,-25.979 -57.979,-57.979l-0,-115.957Z" style="fill:#4cb96e;"/><path d="M286.42,965.18c0,-31.999 25.98,-57.979 57.979,-57.979l226.525,0c32,0 57.979,25.98 57.979,57.979l0,115.958c0,32 -25.979,57.979 -57.979,57.979l-226.525,0c-31.999,0 -57.979,-25.979 -57.979,-57.979l0,-115.958Z" style="fill:#4cb96e;"/><path d="M254.546,856.093c-0,-18.978 15.407,-34.386 34.385,-34.386l134.345,0c18.978,0 34.386,15.408 34.386,34.386l-0,68.771c-0,18.978 -15.408,34.385 -34.386,34.385l-134.345,0c-18.978,0 -34.385,-15.407 -34.385,-34.385l-0,-68.771Z" style="fill:#4cb96e;"/><path d="M474.451,1104.73c-0,-18.978 15.407,-34.386 34.385,-34.386l134.345,0c18.978,0 34.385,15.408 34.385,34.386l0,68.771c0,18.977 -15.407,34.385 -34.385,34.385l-134.345,0c-18.978,0 -34.385,-15.408 -34.385,-34.385l-0,-68.771Z" style="fill:#4cb96e;"/><path d="M136.877,998.655c-0,-33.219 26.969,-60.188 60.188,-60.188l291.798,-0c33.219,-0 60.189,26.969 60.189,60.188l-0,120.377c-0,33.218 -26.97,60.188 -60.189,60.188l-291.798,-0c-33.219,-0 -60.188,-26.97 -60.188,-60.188l-0,-120.377Z" style="fill:#4cb96e;"/><path d="M761.828,1382.6c-0,-37.809 -30.651,-68.46 -68.461,-68.46c-37.809,-0 -68.46,30.651 -68.46,68.46l136.921,0Z" style="fill:#4cb96e;"/><path d="M668.47,1382.6c-0,-24.059 -19.504,-43.562 -43.563,-43.562c-24.059,-0 -43.563,19.503 -43.563,43.562l87.126,0Z" style="fill:#4cb96e;"/><rect x="693.367" y="960.803" width="551.439" height="421.798" style="fill:#fff;"/><rect x="1244.81" y="960.803" width="551.439" height="421.798" style="fill:#66b7e7;"/><g><rect x="900.53" y="1111.28" width="137.115" height="271.317" style="fill:#bde0f5;"/><path d="M1037.64,1078.05c0,-37.863 -30.694,-68.557 -68.557,-68.557c-37.863,-0 -68.557,30.694 -68.557,68.557l137.114,0Z" style="fill:#0d273c;"/><clipPath id="_clip2"><path d="M1037.64,1078.05c0,-37.863 -30.694,-68.557 -68.557,-68.557c-37.863,-0 -68.557,30.694 -68.557,68.557l137.114,0Z"/></clipPath><g clip-path="url(#_clip2)"><path d="M1058.55,1078.05c0,-37.863 -30.694,-68.557 -68.557,-68.557c-37.863,-0 -68.558,30.694 -68.558,68.557l137.115,0Z" style="fill:#bde0f5;"/></g><rect x="880.282" y="1337.76" width="157.363" height="22.419" style="fill:#66b7e7;"/><rect x="880.282" y="1348.97" width="157.363" height="11.209" style="fill:#0d273c;"/><rect x="857.79" y="1360.18" width="179.854" height="22.419" style="fill:#66b7e7;"/><rect x="1010.85" y="1337.76" width="26.795" height="22.419" style="fill:#0d273c;"/><rect x="988.358" y="1360.18" width="49.287" height="22.419" style="fill:#0d273c;"/><rect x="900.53" y="1111.28" width="20.906" height="226.48" style="fill:#0d273c;"/></g><path d="M969.087,679.52l-275.72,281.283l551.44,0l-275.72,-281.283Z" style="fill:#fff;"/><path d="M969.087,679.52l551.439,0l275.72,281.283l-551.439,0l-275.72,-281.283Z" style="fill:#f26c6a;"/><clipPath id="_clip3"><path d="M969.087,679.52l551.439,0l275.72,281.283l-551.439,0l-275.72,-281.283Z"/></clipPath><g clip-path="url(#_clip3)"><path d="M1614.01,700.493l-701.189,0" style="fill:none;stroke:#fff;stroke-width:8.68px;"/><path d="M1645.14,740.244l-701.188,0" style="fill:none;stroke:#fff;stroke-width:8.68px;"/><path d="M1793.5,859.496l-701.188,0" style="fill:none;stroke:#fff;stroke-width:8.68px;"/><path d="M1673.02,779.995l-701.188,-0" style="fill:none;stroke:#fff;stroke-width:8.68px;"/><path d="M1821.38,899.247l-701.189,-0" style="fill:none;stroke:#fff;stroke-width:8.68px;"/><path d="M1704.15,819.745l-701.189,0" style="fill:none;stroke:#fff;stroke-width:8.68px;"/><path d="M1852.51,938.997l-701.189,0" style="fill:none;stroke:#fff;stroke-width:8.68px;"/></g><rect x="1309.52" y="1101.32" width="185.493" height="135.659" style="fill:#0d273c;"/><path d="M1333.81,1382.6c0,-37.809 30.651,-68.46 68.461,-68.46c37.809,-0 68.46,30.651 68.46,68.46l-136.921,0Z" style="fill:#0d273c;"/><path d="M1427.17,1382.6c0,-24.059 19.504,-43.562 43.563,-43.562c24.059,-0 43.562,19.503 43.562,43.562l-87.125,0Z" style="fill:#0d273c;"/><path d="M1663.68,1382.6c-0,-24.059 19.504,-43.562 43.562,-43.562c24.059,-0 43.563,19.503 43.563,43.562l-87.125,0Z" style="fill:#0d273c;"/><path d="M1570.32,1382.6c-0,-37.809 30.651,-68.46 68.46,-68.46c37.81,-0 68.46,30.651 68.46,68.46l-136.92,0Z" style="fill:#0d273c;"/><rect x="1309.52" y="1236.98" width="202.376" height="20.068" style="fill:#0d273c;"/><rect x="1546.04" y="1236.98" width="202.376" height="20.068" style="fill:#0d273c;"/><rect x="1546.04" y="1101.32" width="185.493" height="135.659" style="fill:#0d273c;"/><path d="M2555.37,1651.85c-0,-148.702 -120.547,-269.25 -269.25,-269.25c-593.009,0 -1686.04,0 -2279.05,0c-148.702,0 -269.249,120.548 -269.249,269.25c-0,282.017 -0,684.406 -0,684.406l2817.55,0c-0,0 -0,-402.389 -0,-684.406Z" style="fill:#4cb96e;"/><path d="M486.453,1416.88c0,-37.863 -30.694,-68.558 -68.557,-68.558c-37.863,0 -68.558,30.695 -68.558,68.558l137.115,-0Z" style="fill:#4cb96e;"/><path d="M408.107,369.773c-31.675,-54.862 -90.212,-88.659 -153.561,-88.659c-63.349,0 -121.886,33.797 -153.561,88.659l307.122,-0Z" style="fill:#fff;"/><path d="M681.58,369.773c-46.187,-79.998 -131.544,-129.279 -223.918,-129.279c-92.374,-0 -177.731,49.281 -223.918,129.279l447.836,-0Z" style="fill:#fff;"/></g><circle cx="1566.19" cy="369.773" r="228.278" style="fill:#fcda7b;"/></g></svg>