<?xml version="1.0" encoding="UTF-8" standalone="no"?><!DOCTYPE svg PUBLIC "-//W3C//DTD SVG 1.1//EN" "http://www.w3.org/Graphics/SVG/1.1/DTD/svg11.dtd"><svg width="100%" height="100%" viewBox="0 0 1190 1190" version="1.1" xmlns="http://www.w3.org/2000/svg" xmlns:xlink="http://www.w3.org/1999/xlink" xml:space="preserve" xmlns:serif="http://www.serif.com/" style="fill-rule:evenodd;clip-rule:evenodd;stroke-linecap:round;stroke-linejoin:round;stroke-miterlimit:1.5;"><g><path d="M1189.92,89.235c-0,-49.25 -39.985,-89.235 -89.235,-89.235l-1011.45,0c-49.25,0 -89.235,39.985 -89.235,89.235l-0,1011.33c-0,49.25 39.985,89.235 89.235,89.235l1011.45,0c49.25,0 89.235,-39.985 89.235,-89.235l-0,-1011.33Z" style="fill:#ffdd79;"/><clipPath id="_clip1"><path d="M1189.92,89.235c-0,-49.25 -39.985,-89.235 -89.235,-89.235l-1011.45,0c-49.25,0 -89.235,39.985 -89.235,89.235l-0,1011.33c-0,49.25 39.985,89.235 89.235,89.235l1011.45,0c49.25,0 89.235,-39.985 89.235,-89.235l-0,-1011.33Z"/></clipPath><g clip-path="url(#_clip1)"><rect x="-0" y="916.7" width="1189.92" height="289.001" style="fill:#0d273c;"/><path d="M395.242,876.702c0,-10.906 -4.333,-21.366 -12.045,-29.079c-7.712,-7.712 -18.172,-12.045 -29.079,-12.045c-86.64,0 -280.032,0 -280.032,0l0,53.028l309.254,0c6.573,0 11.902,-5.328 11.902,-11.902c0,-0 0,-0.001 0,-0.002Z" style="fill:#f26c6a;"/><path d="M323.012,835.578l-0,-53.211" style="fill:none;stroke:#f26c6a;stroke-width:2.08px;"/><circle cx="323.012" cy="782.367" r="5.564" style="fill:#f26c6a;"/><path d="M262.106,835.578l0,-76.153c0,-32.433 -26.292,-58.726 -58.726,-58.726l-0.001,0c-71.407,0 -129.293,60.388 -129.293,134.879l188.02,0Z" style="fill:#f26c6a;"/><path d="M251.337,835.578c0,0 0,-37.054 0,-70.186c0,-13.528 -5.374,-26.503 -14.94,-36.069c-9.567,-9.566 -22.541,-14.941 -36.07,-14.941c-0,0 -0,0 -0.001,0c-62.023,0 -112.303,54.262 -112.303,121.196l163.314,0Z" style="fill:#fff;"/><clipPath id="_clip2"><path d="M251.337,835.578c0,0 0,-37.054 0,-70.186c0,-13.528 -5.374,-26.503 -14.94,-36.069c-9.567,-9.566 -22.541,-14.941 -36.07,-14.941c-0,0 -0,0 -0.001,0c-62.023,0 -112.303,54.262 -112.303,121.196l163.314,0Z"/></clipPath><g clip-path="url(#_clip2)"><path d="M110.295,816.769c0,-3.831 -3.11,-6.941 -6.941,-6.941l-13.881,-0c-3.831,-0 -6.941,3.11 -6.941,6.941l-0,24.001c-0,3.831 3.11,6.941 6.941,6.941l13.881,-0c3.831,-0 6.941,-3.11 6.941,-6.941l0,-24.001Z" style="fill:#0d273c;"/><path d="M108.889,799.718c0,-2.318 -1.882,-4.2 -4.2,-4.2l-17.957,-0c-2.318,-0 -4.2,1.882 -4.2,4.2l-0,8.4c-0,2.319 1.882,4.201 4.2,4.201l17.957,-0c2.318,-0 4.2,-1.882 4.2,-4.201l0,-8.4Z" style="fill:#0d273c;"/><path d="M191.402,816.769c0,-3.831 -3.11,-6.941 -6.941,-6.941l-13.882,-0c-3.831,-0 -6.941,3.11 -6.941,6.941l0,24.001c0,3.831 3.11,6.941 6.941,6.941l13.882,-0c3.831,-0 6.941,-3.11 6.941,-6.941l0,-24.001Z" style="fill:#0d273c;"/><path d="M185.888,799.718c0,-2.318 -1.882,-4.2 -4.2,-4.2l-17.957,-0c-2.318,-0 -4.2,1.882 -4.2,4.2l-0,8.4c-0,2.319 1.882,4.201 4.2,4.201l17.957,-0c2.318,-0 4.2,-1.882 4.2,-4.201l0,-8.4Z" style="fill:#0d273c;"/></g><rect x="157.597" y="714.382" width="12.083" height="121.196" style="fill:#f26c6a;"/><path d="M63.017,876.491c0,-6.69 5.423,-12.112 12.112,-12.112c7.815,-0 16.528,-0 16.528,-0l0,24.227l-16.528,0c-6.689,0 -12.112,-5.422 -12.112,-12.112c0,-0.001 0,-0.002 0,-0.003Z" style="fill:#f26c6a;"/><path d="M376.251,864.379l16.529,-0c6.689,-0 12.112,5.422 12.112,12.112c-0,0.001 -0,0.002 -0,0.003c-0,6.69 -5.423,12.112 -12.112,12.112c-7.815,0 -16.529,0 -16.529,0l0,-24.227Z" style="fill:#f26c6a;"/><path d="M149.022,885.82c-0,-16.727 -13.581,-30.308 -30.308,-30.308c-16.727,0 -30.308,13.581 -30.308,30.308l0,5.572c0,16.728 13.581,30.308 30.308,30.308c16.727,0 30.308,-13.58 30.308,-30.308l-0,-5.572Z" style="fill:#0d273c;"/><path d="M129.603,887.605c-0,-6.009 -4.879,-10.889 -10.889,-10.889c-6.01,0 -10.889,4.88 -10.889,10.889l0,2.002c0,6.01 4.879,10.889 10.889,10.889c6.01,0 10.889,-4.879 10.889,-10.889l-0,-2.002Z" style="fill:#fff;"/><path d="M359.386,885.82c0,-16.727 -13.58,-30.308 -30.308,-30.308c-16.727,0 -30.308,13.581 -30.308,30.308l0,5.572c0,16.728 13.581,30.308 30.308,30.308c16.728,0 30.308,-13.58 30.308,-30.308l0,-5.572Z" style="fill:#0d273c;"/><path d="M339.967,887.605c-0,-6.009 -4.879,-10.889 -10.889,-10.889c-6.01,0 -10.889,4.88 -10.889,10.889l0,2.002c0,6.01 4.879,10.889 10.889,10.889c6.01,0 10.889,-4.879 10.889,-10.889l-0,-2.002Z" style="fill:#fff;"/></g><circle cx="185.501" cy="185.501" r="125.501" style="fill:#f26c6a;"/><g><path d="M659.519,916.7c-0,-17.999 -14.592,-32.591 -32.591,-32.591c-18,-0 -32.592,14.592 -32.592,32.591l65.183,0Z" style="fill:#0d273c;"/><path d="M615.7,916.7c0,-11.453 -9.285,-20.738 -20.738,-20.738c-11.454,-0 -20.739,9.285 -20.739,20.738l41.477,0Z" style="fill:#0d273c;"/><rect x="626.928" y="716.184" width="262.146" height="200.517" style="fill:#f26c6a;"/><path d="M758.001,582.466l-131.073,133.718l262.146,-0l-131.073,-133.718Z" style="fill:#f26c6a;"/><rect x="889.074" y="716.184" width="262.146" height="200.517" style="fill:#fff;"/><path d="M927.129,916.7c-0,-17.999 14.591,-32.591 32.591,-32.591c17.999,-0 32.591,14.592 32.591,32.591l-65.182,0Z" style="fill:#f26c6a;"/><path d="M971.573,916.7c-0,-11.453 9.284,-20.738 20.738,-20.738c11.453,-0 20.738,9.285 20.738,20.738l-41.476,0Z" style="fill:#f26c6a;"/><path d="M1084.01,916.7c-0,-11.453 9.284,-20.738 20.738,-20.738c11.453,-0 20.738,9.285 20.738,20.738l-41.476,0Z" style="fill:#f26c6a;"/><path d="M1039.56,916.7c-0,-17.999 14.591,-32.591 32.591,-32.591c17.999,-0 32.591,14.592 32.591,32.591l-65.182,0Z" style="fill:#f26c6a;"/><g><rect x="725.45" y="787.8" width="65.142" height="128.9" style="fill:#fff;"/><path d="M790.592,772.011c-0,-17.989 -14.583,-32.571 -32.571,-32.571c-17.989,-0 -32.571,14.582 -32.571,32.571l65.142,-0Z" style="fill:#0d273c;"/><clipPath id="_clip3"><path d="M790.592,772.011c-0,-17.989 -14.583,-32.571 -32.571,-32.571c-17.989,-0 -32.571,14.582 -32.571,32.571l65.142,-0Z"/></clipPath><g clip-path="url(#_clip3)"><path d="M800.524,772.011c0,-17.989 -14.582,-32.571 -32.571,-32.571c-17.988,-0 -32.571,14.582 -32.571,32.571l65.142,-0Z" style="fill:#fff;"/></g><rect x="715.83" y="895.398" width="74.762" height="10.651" style="fill:#fff;"/><rect x="715.83" y="900.724" width="74.762" height="5.325" style="fill:#0d273c;"/><rect x="705.145" y="906.049" width="85.447" height="10.651" style="fill:#fff;"/><rect x="777.862" y="895.398" width="12.73" height="10.651" style="fill:#0d273c;"/><rect x="767.176" y="906.049" width="23.416" height="10.651" style="fill:#0d273c;"/><rect x="725.45" y="787.8" width="9.932" height="107.598" style="fill:#0d273c;"/></g><g><rect x="915.63" y="787.72" width="88.541" height="64.754" style="fill:#f26c6a;"/><rect x="994.191" y="787.72" width="9.979" height="64.754" style="fill:#0d273c;"/><rect x="957.405" y="787.72" width="4.989" height="64.754" style="fill:#fff;"/><path d="M915.63,822.591l-0,-4.989l88.54,-0l0,4.989l-88.54,0Z" style="fill:#fff;"/><rect x="915.63" y="852.473" width="96.6" height="9.579" style="fill:#0d273c;"/><rect x="925.608" y="852.473" width="86.621" height="9.579" style="fill:#f26c6a;"/></g><g><rect x="1028.07" y="787.72" width="88.541" height="64.754" style="fill:#f26c6a;"/><rect x="1106.63" y="787.72" width="9.979" height="64.754" style="fill:#0d273c;"/><rect x="1069.84" y="787.72" width="4.989" height="64.754" style="fill:#fff;"/><path d="M1028.07,822.591l-0,-4.989l88.54,-0l0,4.989l-88.54,0Z" style="fill:#fff;"/><rect x="1028.07" y="852.473" width="96.6" height="9.579" style="fill:#0d273c;"/><rect x="1038.04" y="852.473" width="86.621" height="9.579" style="fill:#f26c6a;"/></g><path d="M758.001,582.466l262.146,-0l131.073,133.718l-262.146,-0l-131.073,-133.718Z" style="fill:#fff;"/><clipPath id="_clip4"><path d="M758.001,582.466l262.146,-0l131.073,133.718l-262.146,-0l-131.073,-133.718Z"/></clipPath><g clip-path="url(#_clip4)"><path d="M1053.95,592.466l-334.325,-0" style="fill:none;stroke:#f26c6a;stroke-width:2.08px;"/><path d="M1068.79,611.419l-334.324,-0" style="fill:none;stroke:#f26c6a;stroke-width:2.08px;"/><path d="M1139.53,668.278l-334.324,-0" style="fill:none;stroke:#f26c6a;stroke-width:2.08px;"/><path d="M1082.08,630.372l-334.324,-0" style="fill:none;stroke:#f26c6a;stroke-width:2.08px;"/><path d="M1152.82,687.231l-334.324,-0" style="fill:none;stroke:#f26c6a;stroke-width:2.08px;"/><path d="M1096.93,649.325l-334.324,-0" style="fill:none;stroke:#f26c6a;stroke-width:2.08px;"/><path d="M1167.66,706.184l-334.324,-0" style="fill:none;stroke:#f26c6a;stroke-width:2.08px;"/></g></g><path d="M349.846,263.301c-19.062,-33.016 -54.289,-53.354 -92.413,-53.354c-38.123,-0 -73.351,20.338 -92.413,53.354l184.826,0Z" style="fill:#fff;"/><path d="M999.283,456.955c13.072,-22.642 37.231,-36.59 63.376,-36.59c26.144,-0 50.303,13.948 63.375,36.59l-126.751,-0Z" style="fill:#fff;"/><path d="M514.422,263.301c-27.795,-48.143 -79.163,-77.8 -134.754,-77.8c-55.59,0 -106.958,29.657 -134.754,77.8l269.508,0Z" style="fill:#fff;"/><path d="M886.418,456.955c19.062,-33.016 54.29,-53.355 92.413,-53.355c38.124,0 73.351,20.339 92.413,53.355l-184.826,-0Z" style="fill:#fff;"/></g></svg>